<svg width="25" height="21" viewBox="0 0 25 21" fill="none" xmlns="http://www.w3.org/2000/svg">
<path fill-rule="evenodd" clip-rule="evenodd" d="M0 10.5C0 16.299 4.60251 21 10.28 21C15.4769 21 19.7731 17.0612 20.4632 11.9469L24.0568 13.2697L22.08 8.01968L25 3.92717L19.64 4.54724L16.6 0.206693C16.4933 0.795473 16.32 1.8189 16.2952 1.98425C14.604 0.735785 12.5261 0 10.28 0C4.60251 0 0 4.70101 0 10.5ZM3.4 11.6575C2.92 11.4783 1.952 10.7563 1.92 9.30118C1.888 7.84606 3.58667 5.33268 4.44 4.25787C3.98667 5.23622 3.12 7.65591 3.28 9.50787C3.44 11.3598 3.42667 11.7126 3.4 11.6575ZM12.56 2.39764C11.4267 1.94291 8.528 1.46339 6 3.18307C5.04 4.28543 3.352 7.52362 4.28 11.6575C4.72 11.5748 5.792 11.0622 6.56 9.67323C7.52 7.93701 10.84 3.30709 12.56 2.39764ZM4.24 14.1378C3.82667 14.1929 2.92 14.2949 2.6 14.2618C2.12 13.3358 1.94667 12.0295 1.92 11.4921C1.93333 11.5748 2.192 11.8642 3.12 12.3602C4.048 12.8563 4.25333 13.752 4.24 14.1378ZM3.08 15.0472C3.36 14.937 4.04 14.7413 4.52 14.8406C4.66667 15.0197 5.072 15.6012 5.52 16.4941C5.264 16.7587 4.8 16.935 4.6 16.9902C3.96 16.461 3.32 15.4744 3.08 15.0472ZM7.2 18.561C6.84 18.4783 5.968 18.1642 5.36 17.5689C5.53333 17.3898 5.912 17.0646 6.04 17.1968C6.168 17.3291 6.86667 18.1614 7.2 18.561ZM14.92 9.87992L9.84 7.02756L15.16 5.49803C15.5867 5.09843 16.136 4.12559 14.92 3.4311C13.4 2.56299 12.12 3.10039 10.32 5.62205C9.85367 6.27533 9.44372 6.90642 9.04773 7.51604C7.9152 9.2595 6.89678 10.8273 5 12.2362L4.48 12.5669C4.49333 12.8563 4.632 13.5425 5.08 13.9724C6.84 13.6831 11.272 12.4594 14.92 9.87992ZM14.56 17.8996C13.76 18.4783 11.608 19.5366 9.4 19.1398C8.89333 18.9882 7.72 18.3791 7.08 17.1555C8.41333 17.4035 11.776 17.8996 14.56 17.8996ZM16.32 11.9469L16.24 9.09449L14 7.56496L16.56 6.65551L17.24 4.05118L18.88 6.15945L21.64 6.03543L20.12 8.39173L21 10.9134L18.4 10.252L16.32 11.9469ZM14.92 15.9567L18.2 12.7736C17.816 14.2618 17.1333 15.5157 16.84 15.9567C15.76 17.1968 14.04 17.5276 11.4 16.9902C9.288 16.5602 7.08 16.4252 6.24 16.4114C5.824 15.8161 5.49333 15.0197 5.4 14.7165C5.848 14.4189 7 14.1516 7.52 14.0551C9.728 13.526 13.4533 11.6575 15.04 10.7894L14.92 15.9567Z" fill="white"/>
</svg>
